<svg viewBox="0 0 21 16" xmlns="http://www.w3.org/2000/svg">
  <path
    d="m5.92110442 9.9118446-1.85708224.7769346 1.71987514.7163336 1.99428934-.7163336zm-2.79200508.9711682-.06222183 3.4962055 2.71701981 1.1654019v-3.6298383zm5.58401017 0-2.45536905.9105673v3.4231737l2.45536905-.9711682zm2.92921219-10.87708386-1.86984569.77693456 1.73263859.71633367 1.9942893-.71633367zm-2.59257615 1.03215757v3.49620552l2.31816195.65573277.0749853-3.18077009zm5.18515235.19423364-2.1937183.9105673v3.43560463l2.1937183-.9711682zm-11.37383105 3.69432384-1.85708224.77693456 1.71987513.71633366 1.99428935-.71633366zm-2.79200509.9711682-.06222183 3.49620552 2.71701981 1.16540189v-3.62983832zm5.58401017 0-2.45536904.9105673v3.42317371l2.45536904-.97116823zm3.19086296-1.10013934-1.85708224.77693456 1.71987513.71633366 1.99428932-.71633366zm-2.79200509.9711682-.06222182 3.49620552 2.7170198 1.16540183v-3.62944979zm5.5840102 0-2.45536907.9105673v3.42317365l2.45536907-.97116817zm5.8500483-5.76291211-1.8570822.77693456 1.7198751.71633367 1.9942894-.71633367zm-2.792005.9711682-.0622219 3.49620553 2.7170198 1.16540184v-3.6294498zm5.5840101 0-2.455369.91056731v3.42317368l2.455369-.97116821z"
    fill="#f7a80d" />
</svg>